<?xml version="1.0" encoding="utf-8"?>
<!-- Generator: Adobe Illustrator 15.1.0, SVG Export Plug-In  -->
<!DOCTYPE svg PUBLIC "-//W3C//DTD SVG 1.1//EN" "http://www.w3.org/Graphics/SVG/1.1/DTD/svg11.dtd" [
	<!ENTITY ns_flows "http://ns.adobe.com/Flows/1.0/">
]>
<svg version="1.1"
	 xmlns="http://www.w3.org/2000/svg" xmlns:xlink="http://www.w3.org/1999/xlink" xmlns:a="http://ns.adobe.com/AdobeSVGViewerExtensions/3.0/"
	 x="0px" y="0px" width="290px" height="56px" viewBox="0 0 290 56" enable-background="new 0 0 290 56" xml:space="preserve">
<defs>
</defs>
<path fill="#B4B0A5" d="M277.175,42.855c0,2.489-2.481,5.056-5.97,5.056c-1.318,0-3.334-1.244-3.334-4.044
	c0-3.967,2.249-5.756,5.814-5.912l3.489-0.156V42.855z M287.953,53.356l-0.388-2.256C287.177,49,287,46.822,287,45.188V32.9
	c0-6.767-0.211-15.867-14.554-15.867c-3.334,0-7.985,0.856-10.544,1.711c-1.24,0.39-1.629,1.167-1.318,2.489l1.086,4.355
	c0.232,1.089,1.163,1.711,2.558,1.244c1.938-0.622,5.04-1.322,7.754-1.322c4.419,0,5.194,1.633,5.194,5.678l-5.814,0.311
	C261.824,32.044,258,37.178,258,43.867c0,7.388,3.358,12.021,10.492,12.021c4.729,0,8.218-1.678,10.157-4.478l0.311,1.866
	c0.231,1.4,0.852,2.611,2.17,2.611h5.04C287.565,55.889,288.185,54.678,287.953,53.356 M254,53.356V20.067
	c0-1.167-1.014-2.1-2.177-2.1h-5.893c-1.163,0-1.93,0.933-1.93,2.1v33.289c0,1.166,0.767,2.533,1.93,2.533h5.893
	C252.986,55.889,254,54.521,254,53.356 M255,6.067C255,2.723,252.21,0,248.876,0S243,2.723,243,6.067
	c0,3.344,2.542,5.822,5.876,5.822S255,9.411,255,6.067 M228.253,36.556c0,7.544-2.481,10.422-5.66,10.422
	c-3.256,0-5.892-2.178-5.892-10.422c0-7.622,2.016-10.888,5.892-10.888C225.85,25.667,228.253,28.856,228.253,36.556
	 M237.945,53.356V2.489c0-1.166-0.93-2.489-2.094-2.489h-5.892C228.796,0,228,1.323,228,2.489v18.278
	c-1.705-2.1-4.087-3.734-8.119-3.734c-6.126,0-13.646,3.579-13.646,18.978c0,17.266,7.288,19.877,13.568,19.877
	c4.652,0,7.365-2.222,8.993-4.556l0.466,2.023c0.31,1.245,1.395,2.533,2.558,2.533h4.031
	C237.015,55.889,237.945,54.521,237.945,53.356 M193.366,32.889h-9.536c0.231-4.589,1.24-8,4.885-8S193.366,28.455,193.366,32.889
	 M203.445,37.722c0-13.688-4.729-20.688-14.964-20.688C178.945,17.033,173,25.122,173,36.4c0,13.3,6.642,19.488,16.645,19.488
	c5.039,0,8.295-0.511,11.784-2.066c0.93-0.39,1.628-1.167,1.24-2.334l-1.551-4.51c-0.31-1.012-0.853-1.711-2.17-1.244
	c-2.094,0.778-4.265,1.477-7.288,1.477c-6.357,0-7.365-3.199-7.754-7.322h17.445C202.515,39.889,203.445,38.889,203.445,37.722
	 M162.508,18.889c0,4.123-2.636,6-6.745,6H150v-12h5.763C160.106,12.889,162.508,14.534,162.508,18.889 M172.82,18.822
	c0-9.722-5.659-15.934-16.204-15.934H142.04c-1.163,0-2.04,1.467-2.04,2.634v47.755c0,1.167,0.877,2.611,2.04,2.611h6.125
	c1.164,0,1.835-1.444,1.835-2.611V34.889h6.694C165.998,34.889,172.82,28.467,172.82,18.822"/>
<path fill="#C51E27" d="M133.978,53.354V20.066c0-1.167-0.93-2.1-2.092-2.1h-5.893c-1.163,0-1.992,0.933-1.992,2.1v33.288
	c0,1.167,0.83,2.534,1.992,2.534h5.893C133.047,55.889,133.978,54.521,133.978,53.354 M135,5.889C135,2.545,132.272,0,128.938,0
	C125.605,0,123,2.545,123,5.889c0,3.344,2.605,6,5.938,6C132.272,11.889,135,9.233,135,5.889 M108.315,36.555
	c0,7.544-2.481,10.422-5.66,10.422c-3.256,0-5.893-2.178-5.893-10.422c0-7.622,2.017-10.888,5.893-10.888
	C105.912,25.667,108.315,28.855,108.315,36.555 M118,53.354V2.489C118,1.323,117.078,0,115.914,0h-5.893
	c-1.163,0-2.093,1.323-2.093,2.489v18.278c-1.707-2.1-3.954-3.734-7.986-3.734C93.817,17.033,86,20.611,86,36.011
	c0,17.266,7.585,19.878,13.865,19.878c4.651,0,7.365-2.223,8.993-4.556l0.465,2.022c0.311,1.246,1.396,2.534,2.559,2.534h4.032
	C117.078,55.889,118,54.521,118,53.354 M73.428,32.889h-9.536c0.232-4.589,1.24-8,4.884-8S73.428,28.455,73.428,32.889
	 M83.507,37.721c0-13.688-4.73-20.833-14.964-20.833c-9.536,0-15.196,8.233-15.196,19.511c0,13.3,6.357,19.489,16.359,19.489
	c5.04,0,8.296-0.511,11.785-2.066c0.93-0.39,1.628-1.167,1.24-2.334l-1.55-4.511c-0.31-1.012-0.854-1.71-2.17-1.244
	c-2.094,0.778-4.265,1.477-7.289,1.477c-6.358,0-7.365-3.266-7.753-7.388h17.444C82.577,39.822,83.507,38.888,83.507,37.721
	 M50.169,53.277L46.835,5.522c-0.078-1.167-1.318-2.633-2.481-2.633H34.43c-1.163,0-2.48,1.234-2.713,2.399L26.134,33.91
	c-0.388,1.868-0.776,7.079-1.008,9.723c-0.233-2.723-0.62-7.622-1.008-9.723l-5.35-28.622c-0.232-1.166-1.55-2.399-2.714-2.399
	H5.898c-1.164,0-2.404,1.466-2.481,2.633L0.005,53.277c-0.077,1.167,0.698,2.612,1.861,2.612h6.203c1.164,0,2.404-1.444,2.481-2.612
	l1.085-31.811c0.078-1.79-0.077-8.944-0.077-10.5c0.465,2.956,1.24,8.167,1.706,10.5l5.35,26.444
	c0.233,1.166,1.55,1.944,2.713,1.944h7.289c1.163,0,2.481-0.778,2.714-1.944l5.66-26.444c0.542-2.567,1.241-7.544,1.627-10.5
	c0,2.099-0.077,8.866,0,10.5l0.93,31.811c0,1.167,1.319,2.612,2.482,2.612h6.28C49.471,55.889,50.247,54.444,50.169,53.277"/>
</svg>
